<?xml version="1.0" encoding="UTF-8"?><svg xmlns="http://www.w3.org/2000/svg" viewBox="0 0 300 300"><defs><style>.cls-1{fill:#fffefc;}.cls-2{fill:#696661;}.cls-3{fill:#605d58;}.cls-4{fill:#58554f;}</style></defs><path class="cls-4" d="M154.04,166.98l87.68-61.33c4.03-2.82,9.63-1.37,11.78,3.06l31.31,64.45c1.72,3.54.61,7.8-2.61,10.05l-123.57,86.44c-2.65,1.85-6.29-.04-6.29-3.28v-96.11c0-1.31.64-2.53,1.71-3.28Z"/><path class="cls-2" d="M15.86,173.16l29.43-60.58c2.54-5.22,9.6-6.08,13.33-1.63,7.74,9.24,19.36,21.71,32.17,30.73,18.58,13.08,45.91,22.98,55.51,26.24,1.22.41,2.03,1.55,2.03,2.84v95.62c0,3.24-3.64,5.13-6.29,3.28L18.47,183.21c-3.22-2.25-4.33-6.51-2.61-10.05Z"/><path class="cls-3" d="M151.65,163.77c-1.04.73-2.36.92-3.57.51-9.05-3.06-37.53-13.24-54.96-25.87-13.57-9.83-26.78-24.68-34.39-33.92-2.97-3.6-2.23-8.96,1.6-11.64l83.66-58.52c3.34-2.33,7.9-1.79,10.59,1.27,7.08,8.07,19.88,21.62,34.28,31.85,12.77,9.08,31.31,18.37,44.51,24.53,5.58,2.6,6.24,10.27,1.19,13.8l-82.9,57.99Z"/><path class="cls-1" d="M187.99,104.05c-.89.8-1.86,1.54-2.75,2.23-3.27,2.51-3.49,2.34-4.23,1.77-.45-.34-.67-.86-.52-1.2,3.56-5.25,5.79-6.85-1.04-13.7-1.26-1.31-2.45-2.34-3.49-3.14-4.16-3.2-4.9-3.43-6.46-2.8-2.38,1.26-10.1,6.97-18.11,13.13-4.53,3.48-10.09,7.76-14.4,11.19-10.84,8.33-12.92,9.93-6.09,16.67.15.68-.15,1.26-.52,1.54-.52.4-1.19.46-1.78,0-.07-.06-5.64-5.14-11.88-9.93-3.12-2.4-6.38-4.68-9.13-6.22l-.15-.11c-.45-.34-.3-.8.22-1.2.45-.34,1.19-.57,2-.51,9.2,5.14,9.13,4.97,21.9-4.62,3.41-2.51,7.27-5.48,10.76-8.16,3.49-2.68,6.61-5.08,8.31-6.51.59-.46,11.51-8.85,12.25-10.1.08-.17,1.26-.63.08-1.88-.45-.46-2.45-2.23-4.75-4-8.02-6.16-10.62-6.91-22.42-3.2-.59.11-1.19,0-1.63-.34-.52-.4-.74-1.03-.22-1.43,0,0,.07-.06.15-.11,5.94-3.08,12.17-5.6,15.59-7.65.45-.23,1.19,0,1.71.4.45.34.74.8.52,1.2-1.26,2,.37,3.48,19.67,18.32,13.58,10.45,19.08,14.1,21.97,13.59.37-.06.82.06,1.11.29.52.4.74,1.14.52,1.31-1.56.85-3.04,2-7.2,5.19Z"/></svg>